<?xml version="1.0" standalone="no"?>
<!DOCTYPE svg PUBLIC "-//W3C//DTD SVG 20010904//EN"
 "http://www.w3.org/TR/2001/REC-SVG-20010904/DTD/svg10.dtd">
<svg version="1.0" xmlns="http://www.w3.org/2000/svg"
 width="415.000000pt" height="62.000000pt" viewBox="0 0 415.000000 62.000000"
 preserveAspectRatio="xMidYMid meet">

<g transform="translate(0.000000,62.000000) scale(0.100000,-0.100000)"
fill="#000000" stroke="none">
<path d="M2220 475 c0 -18 5 -25 20 -25 15 0 20 7 20 25 0 18 -5 25 -20 25
-15 0 -20 -7 -20 -25z"/>
<path d="M140 424 c0 -53 23 -58 28 -6 l3 32 60 0 59 0 -80 -110 c-44 -61 -80
-117 -80 -125 0 -12 19 -15 101 -15 l100 0 -3 47 c-4 60 -28 72 -28 14 l0 -41
-71 0 -71 0 38 53 c21 28 58 78 81 111 24 32 43 64 43 72 0 11 -20 14 -90 14
l-90 0 0 -46z"/>
<path d="M3060 457 c-39 -20 -70 -74 -70 -124 0 -109 91 -174 180 -128 87 45
84 214 -5 251 -42 17 -72 18 -105 1z m103 -28 c37 -29 54 -88 38 -138 -37
-125 -181 -94 -181 39 0 96 79 150 143 99z"/>
<path d="M3572 423 c4 -60 28 -72 28 -14 0 40 1 41 35 41 l35 0 0 -115 0 -115
-30 0 c-16 0 -30 -4 -30 -10 0 -6 32 -10 75 -10 43 0 75 4 75 10 0 6 -13 10
-30 10 l-30 0 0 115 0 115 40 0 40 0 0 -40 c0 -22 5 -40 10 -40 6 0 10 23 10
50 l0 50 -116 0 -115 0 3 -47z"/>
<path d="M461 391 c-14 -4 -27 -13 -29 -20 -4 -11 1 -12 19 -7 73 23 119 14
119 -24 0 -16 -5 -19 -30 -14 -102 21 -183 -61 -114 -115 32 -25 68 -27 109
-5 19 10 31 11 33 5 5 -14 62 -14 62 -1 0 6 -7 10 -15 10 -12 0 -15 14 -15 68
0 37 -4 72 -8 78 -20 30 -76 41 -131 25z m97 -90 c25 -15 9 -55 -29 -75 -57
-31 -110 -6 -94 44 10 32 90 52 123 31z"/>
<path d="M665 390 c-3 -5 1 -10 9 -10 13 0 16 -14 16 -80 0 -64 -3 -80 -15
-80 -8 0 -15 -4 -15 -10 0 -5 20 -10 45 -10 25 0 45 5 45 10 0 6 -7 10 -15 10
-12 0 -15 13 -15 59 0 66 24 109 53 98 14 -5 17 -22 17 -92 l0 -85 30 0 c17 0
30 5 30 10 0 6 -7 10 -15 10 -25 0 -21 122 5 145 37 34 50 14 50 -80 l0 -85
30 0 c17 0 30 5 30 10 0 6 -7 10 -15 10 -12 0 -15 15 -15 74 0 54 -4 79 -16
90 -20 20 -53 20 -74 1 -15 -14 -18 -14 -30 0 -15 18 -51 20 -68 3 -9 -9 -12
-9 -12 0 0 14 -46 16 -55 2z"/>
<path d="M1044 390 c-64 -26 -83 -109 -36 -161 79 -89 236 -5 193 103 -20 53
-99 82 -157 58z m107 -39 c17 -18 29 -40 29 -56 0 -36 -50 -85 -86 -85 -17 0
-39 11 -56 27 -37 35 -37 77 -1 115 36 37 75 37 114 -1z"/>
<path d="M1265 390 c-3 -5 1 -10 9 -10 13 0 16 -14 16 -80 0 -64 -3 -80 -15
-80 -8 0 -15 -4 -15 -10 0 -5 20 -10 45 -10 25 0 45 5 45 10 0 6 -7 10 -15 10
-12 0 -15 14 -15 64 0 56 3 67 22 80 27 19 69 21 86 4 7 -7 12 -40 12 -80 0
-54 -3 -68 -15 -68 -8 0 -15 -4 -15 -10 0 -5 20 -10 45 -10 25 0 45 5 45 10 0
6 -7 10 -15 10 -12 0 -15 14 -15 68 0 73 -4 83 -37 101 -30 15 -64 14 -91 -5
-20 -14 -22 -14 -22 0 0 18 -45 22 -55 6z"/>
<path d="M1613 389 c-18 -5 -33 -14 -33 -20 0 -7 9 -9 23 -5 78 23 117 15 117
-23 0 -13 -11 -16 -59 -16 -71 0 -101 -21 -101 -71 0 -58 66 -82 130 -49 17 9
30 11 30 5 0 -5 16 -10 35 -10 19 0 35 5 35 10 0 6 -9 10 -20 10 -18 0 -20 7
-20 74 0 52 -4 77 -15 86 -20 16 -83 21 -122 9z m105 -114 c2 -24 -3 -34 -27
-48 -53 -31 -101 -18 -101 29 0 33 37 55 85 52 36 -3 40 -6 43 -33z"/>
<path d="M1830 390 c0 -5 6 -10 13 -10 8 0 33 -40 56 -90 58 -122 73 -122 121
-4 22 54 42 88 53 91 34 10 16 23 -33 23 -27 0 -50 -4 -50 -10 0 -5 9 -10 20
-10 22 0 22 -1 -22 -100 l-25 -55 -36 72 c-21 40 -37 75 -37 78 0 3 9 5 20 5
11 0 20 5 20 10 0 6 -22 10 -50 10 -27 0 -50 -4 -50 -10z"/>
<path d="M2165 390 c-4 -6 8 -10 29 -10 l36 0 0 -80 0 -80 -45 0 c-25 0 -45
-4 -45 -10 0 -6 42 -10 105 -10 63 0 105 4 105 10 0 6 -20 10 -45 10 l-45 0 0
90 0 90 -44 0 c-25 0 -48 -4 -51 -10z"/>
<path d="M2430 390 c0 -5 4 -10 8 -10 4 0 28 -40 52 -90 l44 -90 -17 -35 c-14
-30 -21 -35 -52 -35 -19 0 -35 -4 -35 -10 0 -6 30 -10 70 -10 40 0 70 4 70 10
0 6 -9 10 -20 10 -18 0 -13 14 41 123 34 67 65 124 70 125 23 9 5 22 -31 22
-22 0 -40 -4 -40 -10 0 -5 7 -10 15 -10 8 0 15 -3 15 -7 0 -13 -63 -143 -69
-143 -5 0 -40 72 -69 142 -2 4 3 8 12 8 9 0 16 5 16 10 0 6 -18 10 -40 10 -22
0 -40 -4 -40 -10z"/>
<path d="M3376 241 c-15 -16 -15 -19 1 -34 15 -13 21 -13 36 -3 22 17 22 28
-2 43 -15 10 -22 9 -35 -6z"/>
<path d="M3958 246 c-23 -17 -23 -28 1 -43 15 -10 22 -9 35 6 15 16 15 19 -1
34 -15 13 -21 13 -35 3z"/>
</g>
</svg>
